<svg width="65" height="72" viewBox="0 0 65 72" fill="none" xmlns="http://www.w3.org/2000/svg">
<path d="M32.3594 31.5C29.9688 31.6406 28 33.6094 28 36C28 38.5312 29.9688 40.5 32.5 40.5C34.8906 40.5 37 38.5312 37 36C36.8594 33.6094 34.8906 31.6406 32.3594 31.5ZM62.5938 18C61.0469 15.3281 56.8281 10.9688 46.1406 12.2344C43.1875 4.92188 38.5469 0 32.3594 0C26.3125 0 21.6719 4.92188 18.7188 12.2344C8.03125 10.9688 3.8125 15.3281 2.26562 18C0.015625 22.2188 0.15625 28.4062 5.78125 36C0.15625 43.7344 0.015625 49.9219 2.26562 54C6.34375 61.4531 16.6094 60.1875 18.7188 59.9062C21.6719 67.2188 26.3125 72 32.3594 72C38.5469 72 43.1875 67.2188 46.1406 59.9062C48.25 60.1875 58.5156 61.4531 62.5938 54C64.8438 49.9219 64.7031 43.7344 59.0781 36C64.7031 28.4062 64.8438 22.2188 62.5938 18ZM9.85938 49.5C9.29688 48.5156 9.85938 46.125 11.9688 42.75C12.9531 43.7344 13.9375 44.5781 15.0625 45.4219C15.2031 47.3906 15.625 49.2188 15.9062 51.0469C12.5312 51.1875 10.4219 50.4844 9.85938 49.5ZM15.0625 26.7188C13.9375 27.5625 12.9531 28.4062 11.9688 29.3906C9.85938 26.0156 9.29688 23.625 9.85938 22.5C10.2812 21.6562 12.1094 20.9531 15.2031 20.9531C15.3438 20.9531 15.7656 20.9531 15.9062 20.9531C15.625 22.9219 15.2031 24.75 15.0625 26.7188ZM32.3594 9C33.7656 9 35.5938 10.9688 37.1406 14.3438C35.5938 14.7656 34.0469 15.4688 32.3594 16.1719C30.8125 15.4688 29.2656 14.7656 27.7188 14.3438C29.2656 10.9688 31.0938 9 32.3594 9ZM32.3594 63C31.0938 63 29.2656 61.1719 27.7188 57.7969C29.2656 57.2344 30.8125 56.6719 32.3594 55.9688C34.0469 56.6719 35.5938 57.2344 37.1406 57.7969C35.5938 61.1719 33.7656 63 32.3594 63ZM32.3594 47.25C26.1719 47.25 21.1094 42.3281 21.1094 36C21.1094 29.8125 26.1719 24.75 32.3594 24.75C38.6875 24.75 43.6094 29.8125 43.6094 36C43.6094 42.3281 38.6875 47.25 32.3594 47.25ZM55 49.5C54.5781 50.4844 52.3281 51.1875 48.9531 51.0469C49.2344 49.2188 49.6562 47.3906 49.7969 45.4219C50.9219 44.5781 51.9062 43.7344 52.8906 42.75C55 46.125 55.5625 48.5156 55 49.5ZM52.8906 29.3906C51.9062 28.4062 50.9219 27.5625 49.7969 26.7188C49.6562 24.75 49.2344 22.9219 48.9531 20.9531C49.0938 20.9531 49.5156 20.9531 49.6562 20.9531C52.75 20.9531 54.5781 21.6562 55 22.5C55.5625 23.625 55 26.0156 52.8906 29.3906Z" fill="white"/>
</svg>
