<svg width="72" height="72" viewBox="0 0 72 72" fill="none" xmlns="http://www.w3.org/2000/svg">
<path d="M66.0938 0.28125L21.0938 13.5C19.2656 14.2031 18 15.8906 18 17.8594V54.5625C16.4531 54.2812 15.0469 54.1406 13.5 54C6.04688 54 0 58.0781 0 63C0 68.0625 6.04688 72 13.5 72C20.9531 72 27 68.0625 27 63V30.2344L63 19.6875V45.5625C61.4531 45.2812 60.0469 45.1406 58.5 45C51.0469 45 45 49.0781 45 54C45 59.0625 51.0469 63 58.5 63C65.9531 63 72 59.0625 72 54V4.5C71.8594 2.10938 69.8906 0.140625 67.5 0.140625C66.9375 0.140625 66.5156 0.140625 66.0938 0.28125Z" fill="white"/>
</svg>
