<svg width="72" height="84" viewBox="0 0 72 84" fill="none" xmlns="http://www.w3.org/2000/svg">
<g clip-path="url(#clip0_16:14)">
<path d="M14.1429 28.875H57.8571C58.1981 28.875 58.5252 28.7367 58.7663 28.4906C59.0074 28.2444 59.1429 27.9106 59.1429 27.5625V22.3125C59.1429 21.9644 59.0074 21.6306 58.7663 21.3844C58.5252 21.1383 58.1981 21 57.8571 21H56.5714C56.5725 17.3872 55.5303 13.8542 53.5751 10.8428C51.6199 7.83138 48.8385 5.47516 45.5786 4.06875L41.1429 13.125V2.625C41.1429 1.92881 40.8719 1.26113 40.3897 0.768845C39.9075 0.276562 39.2534 0 38.5714 0L33.4286 0C32.7466 0 32.0925 0.276562 31.6103 0.768845C31.1281 1.26113 30.8571 1.92881 30.8571 2.625V13.125L26.4214 4.06875C23.1615 5.47516 20.3801 7.83138 18.4249 10.8428C16.4697 13.8542 15.4275 17.3872 15.4286 21H14.1429C13.8019 21 13.4748 21.1383 13.2337 21.3844C12.9926 21.6306 12.8571 21.9644 12.8571 22.3125V27.5625C12.8571 27.9106 12.9926 28.2444 13.2337 28.4906C13.4748 28.7367 13.8019 28.875 14.1429 28.875ZM50.4 57.75H47.7161C44.0425 59.4794 40.0453 60.3749 36 60.3749C31.9547 60.3749 27.9575 59.4794 24.2839 57.75H21.6C18.7634 57.75 15.9547 58.3203 13.334 59.4285C10.7134 60.5366 8.33224 62.1608 6.32649 64.2083C2.27571 68.3435 0 73.952 0 79.8C0 80.9139 0.433468 81.9822 1.20505 82.7698C1.97662 83.5575 3.02311 84 4.11429 84H67.8857C68.9769 84 70.0234 83.5575 70.795 82.7698C71.5665 81.9822 72 80.9139 72 79.8C72 73.952 69.7243 68.3435 65.6735 64.2083C61.6227 60.0731 56.1287 57.75 50.4 57.75ZM36 52.5C46.4818 52.5 55.035 44.4708 56.3127 34.125H15.6873C16.965 44.4708 25.5182 52.5 36 52.5Z" fill="white"/>
</g>
<defs>
<clipPath id="clip0_16:14">
<rect width="72" height="84" fill="white"/>
</clipPath>
</defs>
</svg>
